<svg xmlns="http://www.w3.org/2000/svg" viewBox="0 0 482.73 328.68"><defs><style>.cls-1,.cls-2,.cls-3{fill:none;stroke:#000;stroke-miterlimit:10;}.cls-1{stroke-width:4px;}.cls-2{stroke-width:3px;}</style></defs><g id="Capa_2" data-name="Capa 2"><g id="Capa_1-2" data-name="Capa 1"><g id="logo"><path d="M217.58,287.16H212.1a6.65,6.65,0,0,0-2.77.35,2.38,2.38,0,0,0-.91,1.65l-.57,2.4-.1.44h-3.41l1.41-7.1h31.84l-1.41,7.1h-3.41l.07-.44c.09-.61.22-1.41.37-2.37a6.12,6.12,0,0,0,.09-1c0-.67-1-1-3-1H224.7l-5,25.14a16.6,16.6,0,0,0-.39,3.28c0,.51.15.82.44.93a15.66,15.66,0,0,0,2.88.32l.42,0-.42,2.14H207l.43-2.14.44,0c1.95-.13,3.1-.37,3.45-.69s.77-1.59,1.27-3.82Z"/><path d="M258,312.71l-.67,3.16q-7.47,3.7-12.76,3.7a9.52,9.52,0,0,1-6.7-2.31,8,8,0,0,1-2.52-6.16,17.78,17.78,0,0,1,5.14-12.47q5.13-5.5,11.61-5.5a6.69,6.69,0,0,1,4.42,1.46,4.6,4.6,0,0,1,1.75,3.7q0,4.4-4.72,7.6a19.48,19.48,0,0,1-11.22,3.2c0,.43-.05.82-.05,1.15a5.73,5.73,0,0,0,1.51,4.16,5.39,5.39,0,0,0,4,1.56Q251.87,316,258,312.71Zm-15.39-5.83a10.55,10.55,0,0,0,6.66-2,6.27,6.27,0,0,0,2.62-5.17,5.16,5.16,0,0,0-.67-2.93,2.29,2.29,0,0,0-2-1c-1.59,0-3,1-4.23,3.12A19.48,19.48,0,0,0,242.59,306.88Z"/><path d="M281.2,317.13a28.89,28.89,0,0,1-10.64,2.44,9.69,9.69,0,0,1-6.79-2.33,8,8,0,0,1-2.57-6.19,17.53,17.53,0,0,1,5.16-12.57,16.27,16.27,0,0,1,12.1-5.35,17.56,17.56,0,0,1,3.24.31,21.46,21.46,0,0,1,3.42.95l-1.39,7H280.6l.07-.43c.26-1.88.39-2.92.39-3.14a2.14,2.14,0,0,0-1.17-1.79,5,5,0,0,0-2.79-.76c-2.27,0-4.3,1.49-6.07,4.48A19.62,19.62,0,0,0,268.37,310a6.46,6.46,0,0,0,1.47,4.61,5.86,5.86,0,0,0,4.43,1.54,20.31,20.31,0,0,0,7.39-1.66Z"/><path d="M286.57,319l5.92-29.7.51-2.95c0-.91-1-1.42-2.88-1.54l-.42-.05.42-2.14h10.49l-4.32,21.7a27.78,27.78,0,0,1,6.1-8.2c2.27-2,4.49-3,6.65-3a4,4,0,0,1,3,1.32,4.49,4.49,0,0,1,1.25,3.22,17.93,17.93,0,0,1-.39,3.17l-2.29,11.48q-.51,2.85-.51,3c0,.91,1,1.42,2.88,1.54l.42,0L313,319H302.49L306,301.17a9.79,9.79,0,0,0,.28-1.82c0-.77-.31-1.15-.92-1.15q-2.82,0-10.06,10.7l-2,10.1Z"/><path d="M317.51,319l3.71-18.62q.27-1.59.51-3c0-.9-1-1.42-2.88-1.54l-.42,0,.42-2.15h10.49l-2.11,10.64a27.51,27.51,0,0,1,6.1-8.23c2.27-2,4.48-3,6.66-3a4,4,0,0,1,3,1.32,4.57,4.57,0,0,1,1.24,3.22,17.93,17.93,0,0,1-.39,3.17l-2.29,11.48c-.34,1.9-.5,2.89-.5,3,0,.91,1,1.42,2.88,1.54l.41,0-.44,2.14H333.43L337,301.17a9.66,9.66,0,0,0,.21-1.79c0-.79-.3-1.18-.9-1.18q-2.75,0-10,10.71l-2,10.09Z"/><path d="M347.8,311.35A18.05,18.05,0,0,1,353,298.61a16,16,0,0,1,12-5.48,9.41,9.41,0,0,1,6.68,2.34,8.13,8.13,0,0,1,2.51,6.25,18,18,0,0,1-4.43,11.5,15.81,15.81,0,0,1-12.81,6.35,9.44,9.44,0,0,1-6.56-2.28A7.62,7.62,0,0,1,347.8,311.35Zm7.38-1.36a10.83,10.83,0,0,0,1,5.15,3.14,3.14,0,0,0,2.91,1.72c2.05,0,3.9-1.48,5.53-4.45a20.5,20.5,0,0,0,2.44-10,10.57,10.57,0,0,0-.95-5.05,3.05,3.05,0,0,0-2.83-1.68c-2,0-3.9,1.48-5.56,4.46A19.83,19.83,0,0,0,355.18,310Z"/><path d="M376.46,319l5.93-29.7.48-2.95c0-.91-.95-1.42-2.86-1.54l-.44-.05.44-2.14H390.5l-5.89,29.7q-.51,2.85-.51,3c0,.91,1,1.42,2.88,1.54l.42,0L387,319Z"/><path d="M391.16,311.35a18.05,18.05,0,0,1,5.15-12.74,16,16,0,0,1,12-5.48,9.4,9.4,0,0,1,6.68,2.34,8.1,8.1,0,0,1,2.52,6.25,18,18,0,0,1-4.43,11.5,15.81,15.81,0,0,1-12.81,6.35,9.43,9.43,0,0,1-6.56-2.28A7.62,7.62,0,0,1,391.16,311.35Zm7.38-1.36a10.83,10.83,0,0,0,1,5.15,3.14,3.14,0,0,0,2.91,1.72c2,0,3.9-1.48,5.52-4.45a20.5,20.5,0,0,0,2.45-10,10.57,10.57,0,0,0-.95-5.05,3.05,3.05,0,0,0-2.83-1.68c-2,0-3.9,1.48-5.57,4.46A19.93,19.93,0,0,0,398.54,310Z"/><path d="M419.34,327.73l-1.59-7.35q7.14,5.64,11.94,5.65c1.66,0,2.74-.44,3.26-1.29s1.15-3.26,1.91-7.19l1.64-9.42a25.33,25.33,0,0,1-5.79,7.26q-3.31,2.78-6.19,2.78a4.77,4.77,0,0,1-3.91-1.59,7.34,7.34,0,0,1-1.32-4.77q0-5.46,4.75-11.73,5.08-6.68,12.64-6.68c.5,0,1.41.07,2.76.21l.89.09h5.55l-3.11,17.51a74.17,74.17,0,0,1-2.23,9.38,11.22,11.22,0,0,1-2.78,4.13q-4.15,4-11.68,4A28,28,0,0,1,419.34,327.73Zm18.44-25.1,1.09-5.22a6.3,6.3,0,0,0-4.56-1.86q-3.74,0-6.3,7.05a24.43,24.43,0,0,0-1.67,8.15,3.24,3.24,0,0,0,.41,1.8,1.35,1.35,0,0,0,1.2.6Q431.05,313.15,437.78,302.63Z"/><path d="M444.36,328.1a51.3,51.3,0,0,0,12.73-9.84q-1.84-12.72-3.63-17.78a15,15,0,0,0-1.72-3.82,2.58,2.58,0,0,0-2.11-.79l-.69,0,.42-2.15h9a79.48,79.48,0,0,1,4.05,17.86l1.73-2.05q6.42-7.65,6.42-10.74a6.78,6.78,0,0,0-2.4-5.07H476a6.09,6.09,0,0,1,.55,2.31,8,8,0,0,1-1.49,4.49q-1.49,2.24-8,9.7l-5.31,6.07A80.57,80.57,0,0,0,453,328.1Z"/><path d="M217.38,115.66a6.81,6.81,0,0,1-9.53,2.15L178.21,99.05a7.1,7.1,0,0,1,0-11.8l29.64-18.66a6.81,6.81,0,0,1,9.53,2,7.31,7.31,0,0,1-2.15,9.84L195,93.2l20.2,12.61A7.33,7.33,0,0,1,217.38,115.66Z"/><path d="M234.33,125.2c-1.33,3.59-5.43,4.41-7.89,3.49a6.1,6.1,0,0,1-3.49-7.9l24.61-63.68a6.06,6.06,0,0,1,7.9-3.59,6,6,0,0,1,3.48,7.9Z"/><path d="M275,117.81c-3.18,2-7.59,1.74-9.84-2.15a7.29,7.29,0,0,1,2.15-9.85L287.48,93.2,267.27,80.48a7.42,7.42,0,0,1-2.15-9.84,7.15,7.15,0,0,1,9.84-2l29.33,18.66a7.14,7.14,0,0,1,0,11.8Z"/><circle class="cls-1" cx="241.23" cy="92.01" r="90.01"/><path d="M35.86,246a18.82,18.82,0,0,1-35,9.5A6.17,6.17,0,0,1,3,247.17a6.11,6.11,0,0,1,8.36,2.14c3.29,5.6,12.34,3.76,12.34-3.29a6.61,6.61,0,0,0-4-6c-1.53-.69-3-.39-4.44-.84a6.24,6.24,0,0,1-4.45-5.91,5.78,5.78,0,0,1,5.44-6c2.76-.15,4.6-1.3,4.6-4.06A4,4,0,0,0,14.62,220a6.13,6.13,0,0,1-8.51-1.53,6.06,6.06,0,0,1,1.46-8.44C17.3,203,33,209.07,33,223.25a16.08,16.08,0,0,1-2.91,9.28A18.84,18.84,0,0,1,35.86,246Z"/><path d="M90.12,236a28.4,28.4,0,0,1-28.37,28.36H49a6.05,6.05,0,0,1-5.9-6.13V213.74a6.15,6.15,0,0,1,6.13-6.13H61.75A28.41,28.41,0,0,1,90.12,236Zm-12.34,0a16.08,16.08,0,0,0-16-16.1H55.39v32.19h6.36A16.08,16.08,0,0,0,77.78,236Z"/><path d="M101.52,264.34a6.07,6.07,0,0,1-6-6.06V213.67a6.06,6.06,0,1,1,12.11,0v44.61A6.07,6.07,0,0,1,101.52,264.34Z"/><path d="M161.08,236a28.4,28.4,0,0,1-28.36,28.36H120a6.05,6.05,0,0,1-5.9-6.13V213.74a6.15,6.15,0,0,1,6.13-6.13h12.5A28.4,28.4,0,0,1,161.08,236Zm-12.34,0a16.08,16.08,0,0,0-16-16.1h-6.37v32.19h6.37A16.08,16.08,0,0,0,148.74,236Z"/><path d="M213.88,263.8a6,6,0,0,1-8-3.14l-2.68-6.06H179.69l-2.76,6.06a6.07,6.07,0,1,1-11.11-4.91l19.85-44.38a6.28,6.28,0,0,1,3.22-3.22,7,7,0,0,1,5,0,6.23,6.23,0,0,1,3.21,3.22L217,255.75A6.21,6.21,0,0,1,213.88,263.8Zm-16.25-21.38-6.21-14-6.21,14Z"/><path d="M250.89,264.8a28.83,28.83,0,0,1,0-57.65,28.3,28.3,0,0,1,17.55,6,6.09,6.09,0,1,1-7.43,9.66,16.67,16.67,0,1,0-.08,26.37,6.19,6.19,0,0,1,8.59,1.15,6.13,6.13,0,0,1-1.15,8.59A28.37,28.37,0,0,1,250.89,264.8Z"/><path d="M311.43,213.74a6.17,6.17,0,0,1-6.21,6.14h-5.9v38.33a6.1,6.1,0,1,1-12.19,0V219.88h-5.9a6.14,6.14,0,1,1,0-12.27h24A6.17,6.17,0,0,1,311.43,213.74Z"/><path d="M322.08,264.34a6.07,6.07,0,0,1-6.06-6.06V213.67a6.06,6.06,0,1,1,12.11,0v44.61A6.07,6.07,0,0,1,322.08,264.34Z"/><path d="M361.93,264.8a28.83,28.83,0,0,1,0-57.65,28.35,28.35,0,0,1,17.56,6,6.19,6.19,0,0,1,1.15,8.59,6.12,6.12,0,0,1-8.59,1.07,16.67,16.67,0,1,0-.08,26.37,6.19,6.19,0,0,1,8.59,1.15,6.13,6.13,0,0,1-1.15,8.59A28.37,28.37,0,0,1,361.93,264.8Z"/><path d="M478,258.36c-7.35,8.2-18.62,7.59-26.29,2.84a6.11,6.11,0,0,1-1.61-8.51,6.19,6.19,0,0,1,4.6-2.69c2.22-.15,4.06,1.23,6.13,2,2.84.92,5.83.61,7.9-1.69a5.35,5.35,0,0,0-1.69-8.51c-2.76-1.61-8.28-2.15-12.34-6.21A16.29,16.29,0,0,1,450,223.86a16.51,16.51,0,0,1,8.66-14.26,18.64,18.64,0,0,1,18.55.08,6.29,6.29,0,0,1,2.23,8.43c-1.84,2.92-5,3.53-8.82,2-4.68-1.92-9.66,1.61-8.2,5.29,1.22,3.14,7.28,4,10.35,5.52a18,18,0,0,1,9.65,14.41A17.12,17.12,0,0,1,478,258.36Z"/><path d="M410.63,242.79a1.91,1.91,0,0,1-2.66.6l-8.26-5.23a2,2,0,0,1,0-3.29l8.26-5.21a1.91,1.91,0,0,1,2.66.57A2,2,0,0,1,410,233l-5.63,3.55L410,240A2,2,0,0,1,410.63,242.79Z"/><path d="M415.36,245.45a1.75,1.75,0,0,1-2.21,1,1.7,1.7,0,0,1-1-2.2L419,226.46a1.71,1.71,0,0,1,2.21-1,1.67,1.67,0,0,1,1,2.2Z"/><path d="M426.69,243.39a1.9,1.9,0,0,1-2.75-.6,2,2,0,0,1,.6-2.75l5.64-3.51L424.54,233a2.09,2.09,0,0,1-.6-2.75,2,2,0,0,1,2.75-.57l8.17,5.21a2,2,0,0,1,0,3.29Z"/><circle class="cls-2" cx="417.28" cy="236.2" r="25.1"/></g><g id="register"><circle class="cls-3" cx="476.98" cy="199.25" r="5.25"/><path d="M474.54,202v-5.83H477a3.55,3.55,0,0,1,1.13.16,1.41,1.41,0,0,1,.71.49,1.25,1.25,0,0,1,.24.61,2.05,2.05,0,0,1,0,.89,1.31,1.31,0,0,1-.79.85l-.25.1.09,0a1.32,1.32,0,0,1,.59.45,4,4,0,0,1,.35.59l.8,1.61,0,0h-1.56a.08.08,0,0,1-.07,0c-.24-.49-.48-1-.73-1.48a2.39,2.39,0,0,0-.21-.34.76.76,0,0,0-.58-.33c-.2,0-.41,0-.62,0V202Zm1.5-3.24h.71a2,2,0,0,0,.34-.05.57.57,0,0,0,.44-.44,1.25,1.25,0,0,0,0-.51.55.55,0,0,0-.4-.44.58.58,0,0,0-.19,0l-.89,0h0Z"/></g></g></g></svg>